<?xml version="1.0" encoding="UTF-8"?>
<!DOCTYPE svg PUBLIC "-//W3C//DTD SVG 1.1//EN" "http://www.w3.org/Graphics/SVG/1.1/DTD/svg11.dtd">
<!-- Creator: CorelDRAW -->
<svg xmlns="http://www.w3.org/2000/svg" xml:space="preserve" width="21.877mm" height="4.6933mm" version="1.1" style="shape-rendering:geometricPrecision; text-rendering:geometricPrecision; image-rendering:optimizeQuality; fill-rule:evenodd; clip-rule:evenodd"
viewBox="0 0 76.13 16.33"
 xmlns:xlink="http://www.w3.org/1999/xlink"
 xmlns:xodm="http://www.corel.com/coreldraw/odm/2003">
 <defs>
  <style type="text/css">
   <![CDATA[
    .fil0 {fill:#FEFEFE}
    .fil1 {fill:#FEFEFE;fill-rule:nonzero}
   ]]>
  </style>
 </defs>
 <g id="Capa_x0020_1">
  <metadata id="CorelCorpID_0Corel-Layer"/>
  <path class="fil0" d="M10.15 10.17c0.01,-0.05 0,-0.06 -0.03,-0.1 -0.07,-0.07 -0.12,-0.09 -0.22,-0.09 -0.06,0 -0.07,0.01 -0.11,0.04 -0.15,0.11 -0.11,0.35 -0.1,0.48 0,0.21 0.18,0.55 0.32,0.69 0.12,0.12 0.16,0.12 0.17,0.19l-0 -0 -0 0c-0.06,-0.01 -0.04,0 -0.14,0.03 -0.47,0.13 -1.19,-0.04 -1.23,-0.61 -0.01,-0.09 -0,-0.07 0,-0.17 0.01,-0.24 -0.02,-0.56 -0,-0.78 0.01,-0.09 0.08,-0.1 0.17,-0.21 0.07,-0.09 0.27,-0.27 0.38,-0.39 0,-0 0.01,-0.01 0.01,-0.01 0.05,-0.05 0.05,-0.07 0.12,-0.08 0.06,-0 0.14,0 0.2,0 0.45,0 0.31,-0.06 0.58,0.2 0.19,0.19 0.16,0.24 0.54,0.24 0.07,0.3 0.36,0.51 0.73,0.49 0.07,-0 0.18,-0.05 0.23,-0.07 0.04,-0.02 0.14,-0.1 0.17,-0.13 0.39,-0.46 0.12,-1.01 -0.31,-1.14 -0.35,-0.1 -0.64,0.1 -0.79,0.4 -0.14,0 -0.18,-0.02 -0.24,-0.09 -0.05,-0.07 -0.11,-0.11 -0.17,-0.18 -0.05,-0.04 -0.09,-0.09 -0.13,-0.13 -0.07,-0.06 -0.13,-0.04 -0.25,-0.04 -0.19,0 -0.38,0 -0.56,0 -0.3,-0 -0.27,0.05 -0.53,0.31l-0.14 0.15 0 -0.67c0,-0.08 0.01,-0.09 0.01,-0.19 0,-0.15 0.01,-0.33 -0,-0.48 -0.01,-0.13 -0.03,-0.11 0.09,-0.09l2.17 0c0.07,0.15 0.09,0.22 0.26,0.34 0.26,0.18 0.66,0.14 0.88,-0.13 0.5,-0.6 -0.21,-1.41 -0.87,-1.02 -0.1,0.06 -0.24,0.22 -0.27,0.34l-2.26 0c0,-0.2 0.03,-1.17 -0.02,-1.27 0.05,0.01 0.08,0.05 0.11,0.09 0.1,0.08 0.25,0.28 0.35,0.32 0.08,0.03 0.92,0.02 0.98,0 0.07,-0.03 0.28,-0.26 0.34,-0.33 0.08,-0.08 0.07,-0.1 0.23,-0.1 0.04,0.06 0.08,0.13 0.13,0.18 0.46,0.49 1.22,0.18 1.19,-0.52 -0.03,-0.57 -0.8,-0.86 -1.18,-0.4 -0.03,0.03 -0.04,0.05 -0.07,0.09 -0.02,0.03 -0.04,0.06 -0.05,0.1 -0.02,0.05 -0.02,0.08 -0.04,0.13 -0.25,0 -0.29,-0.01 -0.44,0.13 -0.08,0.07 -0.2,0.26 -0.3,0.28 -0.04,0.01 -0.5,0.01 -0.56,0 -0.09,-0.01 -0.22,-0.17 -0.32,-0.26 -0.1,-0.1 -0.18,-0.19 -0.28,-0.28 -0.09,-0.09 -0.07,-0.05 -0.07,-0.22l0 -2c-0,-0.17 -0.02,-0.23 0.24,-0.34 0.77,-0.31 1.73,0.41 1.59,1.11 -0.04,0.22 -0.11,0.25 -0.2,0.37 -0.23,0.19 -0.42,0.11 -0.54,0.19 -0.04,0.03 -0.08,0.09 -0.09,0.15 -0.06,0.52 1.08,0.34 1.3,-0.57 0.02,-0.1 0.06,-0.36 0.01,-0.46 0.67,0.1 1.12,0.67 1.03,1.32 -0.03,0.26 0.15,0.12 0.52,0.57 0.26,0.31 0.45,0.81 0.27,1.35 -0.12,0.37 -0.34,0.4 -0.15,0.59 0.45,0.46 0.41,1.23 0,1.77 -0.26,0.34 -0.56,0.42 -0.61,0.5 -0.06,0.09 0.02,0.42 -0.15,0.73 -0.18,0.34 -0.55,0.68 -1.1,0.66 -0.24,-0.01 -0.43,-0.13 -0.58,-0.3 -0.16,-0.18 -0.18,-0.35 -0.18,-0.58 0,-0.09 -0,-0.09 -0.03,-0.11zm1.1 -4.29c-0.05,-0.07 -0.08,-0.17 -0.03,-0.25 0.04,-0.07 0.14,-0.13 0.22,-0.13 0.06,0 0.12,0.03 0.16,0.07 0.21,0.22 -0.07,0.51 -0.33,0.34l-0.03 -0.03zm-2.87 7.58c-0.02,0.18 -0.36,0.28 -0.48,0.07 -0.06,-0.1 -0.07,-0.19 0.01,-0.29 0.11,-0.15 0.35,-0.12 0.44,0.02 0.03,0.04 0.04,0.16 0.03,0.21zm-0.84 -7.06c-0.07,-0.06 -0.16,-0.09 -0.26,-0.12 -0.71,-0.2 -1.28,0.42 -1.12,0.7 0.04,0.07 0.13,0.14 0.26,0.12 0.19,-0.04 0.17,-0.27 0.45,-0.33 0.33,-0.07 0.62,0.14 0.67,0.49 0.03,0.18 0.01,1.27 0.01,1.55 0,0.04 0.01,0.03 -0.03,0.03l-0.13 -0.17c-0,-0 -0.01,-0.01 -0.01,-0.01l-0.22 -0.19c-0.37,-0.25 -0.8,-0.29 -1.17,-0.07 -0.14,0.09 -0.29,0.24 -0.36,0.4 -0.17,0.4 0.04,0.81 0.39,1.01 0.2,0.11 0.46,0.05 0.42,-0.24 -0.03,-0.18 -0.31,-0.15 -0.38,-0.38 -0.1,-0.3 0.41,-0.64 0.88,-0.29 0.28,0.21 0.47,0.56 0.56,0.96 0.07,0.3 0.06,0.7 -0.1,0.96 -0.06,0.1 -0.13,0.19 -0.21,0.26 -0.14,0.11 -0.22,0.19 -0.43,0.24 -0.21,0.05 -0.45,0.05 -0.6,-0.05 0,-0.43 0.37,-0.47 0.3,-0.74 -0.02,-0.08 -0.1,-0.15 -0.18,-0.17 -0.3,-0.06 -0.62,0.61 -0.6,0.79 -0.02,0.02 -0.01,-0 -0.02,0.03 -0.01,0.03 -0,0.01 -0.01,0.05 -0.12,-0.05 -0.35,0.02 -0.62,-0.12 -0.6,-0.32 -0.85,-1.05 -0.3,-1.6 0.07,-0.07 0.36,-0.19 0.27,-0.43 -0.08,-0.22 -0.32,-0.16 -0.47,-0.05 -0.04,0.03 -0.06,0.05 -0.1,0.08 -0.19,0.15 -0.28,0.35 -0.37,0.53 -0.1,-0.03 -0.33,-0.22 -0.39,-0.29 -0.3,-0.35 -0.47,-0.81 -0.36,-1.3 0.03,-0.12 0.08,-0.2 0.07,-0.27 0.04,-0.01 0.02,0 0.04,-0.02 0.1,0.11 0.29,0.25 0.41,0.32 0.33,0.2 0.79,0.31 1.19,0.26 0.22,-0.03 0.36,-0.09 0.52,-0.23 0.18,-0.15 0.3,-0.5 0.15,-0.8 -0.31,-0.59 -1.28,-0.32 -1,0.09 0.05,0.07 0.16,0.12 0.25,0.08 0.39,-0.14 0.36,0.17 0.28,0.25 -0.18,0.16 -0.69,0.1 -0.92,0.01 -0.42,-0.16 -0.79,-0.52 -0.89,-0.96 -0.01,-0.06 -0.05,-0.26 -0.04,-0.34 0.02,-0.23 0.06,-0.41 0.15,-0.59 0.04,-0.08 0.24,-0.4 0.33,-0.42 0.01,0.11 0.19,0.37 0.27,0.46 0.01,0.01 0.02,0.02 0.03,0.03l0.1 0.1c0.55,0.56 1.65,0.46 1.73,0.06 0.03,-0.13 -0.08,-0.27 -0.21,-0.28 -0.16,-0.01 -0.43,0.21 -0.83,0.06 -0.63,-0.24 -0.89,-0.96 -0.55,-1.61 0.09,-0.16 0.18,-0.21 0.22,-0.29 0.03,-0.01 0.15,-0.11 0.29,-0.18 0.09,-0.04 0.25,-0.11 0.37,-0.12 0,0.06 -0.02,0.33 0.02,0.38 -0.04,0.17 0.13,0.51 0.24,0.65 0.13,0.18 0.3,0.31 0.5,0.41 0.2,0.1 0.51,0.16 0.76,0.07 0.21,-0.08 0.38,-0.25 0.43,-0.48 0.1,-0.43 -0.25,-0.82 -0.5,-0.82 -0.13,0 -0.23,0.11 -0.23,0.23 -0,0.15 0.12,0.19 0.2,0.26 0.09,0.07 0.14,0.22 0.03,0.32 -0.32,0.32 -1.44,-0.45 -0.77,-1.4 0.26,-0.36 0.81,-0.59 1.29,-0.44 0.05,0.02 0.11,0.04 0.16,0.07 0.03,0.02 0.11,0.07 0.14,0.09 0.06,0.07 0.03,0.31 0.03,0.43l0 2.74 -0.01 0.21zm-4.51 0.93c-0.4,0.59 -0.36,1.43 -0.01,2.03 0.19,0.33 0.5,0.61 0.85,0.77 0.08,0.04 0.03,0.05 0.06,0.24 0.03,0.21 0.08,0.33 0.16,0.49 0.25,0.51 0.89,0.99 1.7,0.83 0.13,-0.03 0.16,0.09 0.47,0.15 0.21,0.04 0.4,0.03 0.59,-0.02 0.41,-0.1 0.74,-0.37 0.93,-0.7 0.12,-0.2 0.23,-0.49 0.23,-0.74l-0 -3.13c-0,-0.07 0.01,-0.07 0.01,-0.14l0 -0.5c0,-0.87 0,-1.74 0,-2.61 0,-0.31 0.05,-1.05 -0.06,-1.24 -0.18,-0.33 -0.71,-0.49 -0.86,-0.44 -0.01,-0.03 0.03,-0.03 -0.14,-0.03 -0.35,0.01 -0.58,0.02 -0.92,0.22 -0.11,0.06 -0.2,0.11 -0.29,0.2 -0.09,0.09 -0.05,0.02 -0.16,0.16l-0.22 0.29c-0.55,0 -0.94,0.23 -1.22,0.51 -0.15,0.15 -0.25,0.3 -0.35,0.5 -0.16,0.33 -0.1,0.66 -0.15,0.72l-0.23 0.19c-0.18,0.14 -0.43,0.56 -0.5,0.79 -0.07,0.24 -0.11,0.44 -0.09,0.76 0.02,0.35 0.18,0.59 0.18,0.69zm8.67 2.17c-0.02,0.1 -0.18,0.24 -0.34,0.18 -0.43,-0.24 -0.07,-0.67 0.23,-0.47 0.1,0.06 0.13,0.17 0.1,0.29zm-0.26 -1.92c-0.04,-0.43 0.46,-0.39 0.51,-0.09 0.07,0.38 -0.48,0.39 -0.51,0.09zm-3.12 -4.47l0 2.09c0,0.07 0.01,-0.01 0.01,0.05l-0 0.27c-0.01,0.09 0,0.08 0,0.11l-0 5.87c0,0.31 -0.14,0.41 -0.29,0.57 -0.17,0.18 -0.17,0.36 -0.17,0.7 -0.21,0.05 -0.43,0.34 -0.43,0.58 0,0.2 0.04,0.4 0.2,0.53 0.51,0.43 1.07,0.04 1.14,-0.35 0.07,-0.42 -0.27,-0.73 -0.42,-0.74 0,-0.47 -0.03,-0.31 0.2,-0.56 0.09,-0.1 0.24,-0.35 0.24,-0.54 0.07,0.01 0.04,0.01 0.09,0.04 0.43,0.28 1.08,0.31 1.53,0.08 0.09,-0.04 0.16,-0.08 0.23,-0.14 0.11,-0.09 0.15,-0.02 0.3,-0.02 0.33,0 0.48,-0.02 0.78,-0.17 0.51,-0.26 0.92,-0.86 0.92,-1.42 0.08,-0.04 0.12,-0.07 0.19,-0.13 0.06,-0.05 0.12,-0.09 0.18,-0.14 0.33,-0.33 0.61,-0.85 0.61,-1.32 0,-0.42 0,-0.6 -0.19,-0.98 -0.04,-0.07 -0.08,-0.13 -0.11,-0.19 0.46,-0.86 0.09,-1.92 -0.66,-2.43 0,-0.46 -0.09,-0.76 -0.36,-1.1 -0.28,-0.34 -0.74,-0.58 -1.22,-0.61 -0.06,-0 -0.07,0.01 -0.11,-0.04 -0.15,-0.21 -0.22,-0.29 -0.45,-0.46 -0.5,-0.38 -1.31,-0.52 -1.86,-0.18 -0.25,0.15 -0.33,0.32 -0.33,0.63z"/>
  <g id="_1943010586944">
   <path class="fil0" d="M27.79 13.33l0.58 0c-0.12,0.17 -0.4,0.16 -0.58,0zm1.44 -0.71c0,0.01 0.1,0.25 -0.09,0.25l-2.12 0c-0.11,0 -0.12,-0.14 -0.1,-0.19 0.05,-0.09 0.14,-0.06 0.28,-0.06l2.03 0zm-2.34 -0.61c0.06,-0.06 0.08,-0.12 0.22,-0.12l1.97 0c0.27,0 0.21,0.28 0.06,0.28 -0.43,0 -1.9,0.04 -2.21,-0.03 -0.01,-0.1 0,-0.06 -0.03,-0.12zm0 -0.71l0.06 -0.07c0.04,-0.04 0.02,-0.06 0.1,-0.06l2.03 0c0.25,0 0.25,0.28 0,0.28l-2.03 0c-0.1,0 -0.12,-0.09 -0.15,-0.15zm0.98 -2.06l0.4 0 0 1.51 -0.4 0 0 -1.51zm-1.04 -0.74c0,-0.52 0.61,-0.48 0.61,0.03l0 0.28c-0.24,0 -0.61,0.04 -0.61,-0.31zm2.15 0.31l-0.25 0 0 -0.37c0,-0.38 0.61,-0.4 0.61,0.03 0,0.21 -0.15,0.34 -0.37,0.34zm-2.61 -0.34c0,0.4 0.33,0.77 0.68,0.77l0.4 0 0 1.51 -0.58 0c-0.03,-0.36 -0.67,-0.88 -0.91,-1.18 -1.38,-1.75 -0.12,-4.38 2.11,-4.38 2.19,0 3.56,2.47 2.19,4.34 -0.27,0.36 -0.85,0.78 -0.96,1.22l-0.55 0 0 -1.51 0.37 0c0.34,0 0.68,-0.34 0.68,-0.68 0,-0.26 -0,-0.45 -0.23,-0.66 -0.43,-0.4 -1.28,-0.21 -1.28,0.66l0 0.25 -0.4 0 0 -0.43c0,-0.34 -0.34,-0.68 -0.68,-0.68l-0.15 0c-0.37,0 -0.68,0.39 -0.68,0.77zm-1.44 -0.58c0,0.76 0.29,1.45 0.63,1.89 0.2,0.27 0.4,0.41 0.61,0.65 0.1,0.11 0.19,0.24 0.26,0.39 0.19,0.37 0.04,0.13 0.04,0.51 0,0.17 0.06,0.24 0.12,0.34 -0.28,0.42 0.03,0.61 -0.04,0.76 -0.11,0.26 -0.18,0.53 0.15,0.78 0.16,0.12 0.32,0.12 0.59,0.12 0.02,0.27 0.38,0.55 0.68,0.55 0.42,0 0.82,-0.1 0.92,-0.55 0.3,0 0.57,-0 0.73,-0.28 0.14,-0.25 0.12,-0.43 -0.03,-0.64 0.02,-0.11 0.12,-0.25 0.12,-0.37 0,-0.15 -0.1,-0.27 -0.11,-0.35 -0.01,-0.08 0.11,-0.23 0.11,-0.36 0,-0.21 -0.23,-0.27 0.24,-0.84 0.05,-0.06 0.07,-0.1 0.12,-0.15 0.17,-0.17 0.13,-0.09 0.42,-0.41 0.35,-0.4 0.73,-1.16 0.73,-1.82 0,-0.75 0,-0.86 -0.3,-1.58 -0.39,-0.92 -1.58,-1.77 -2.65,-1.77 -0.8,0 -1.41,0.12 -2.05,0.6 -0.3,0.23 -0.55,0.47 -0.76,0.78 -0.32,0.47 -0.55,1.12 -0.55,1.76z"/>
   <path class="fil0" d="M27.85 2.76c0,0.53 -0.1,1.01 0.25,1.01 0.08,0 0.09,-0.01 0.14,-0.05 0.13,-0.11 0.08,-0.71 0.08,-1.03 0,-0.32 -0.46,-0.37 -0.46,0.06z"/>
   <path class="fil0" d="M22.6 7.95c0,0.33 0.49,0.25 0.98,0.25 0.5,0 0.35,-0.46 0.15,-0.46l-0.92 0c-0.14,0 -0.22,0.07 -0.22,0.22z"/>
   <path class="fil0" d="M31.14 5.07c0.26,0 0.4,-0.24 0.67,-0.5 0.08,-0.08 0.2,-0.16 0.23,-0.29 0.03,-0.12 -0.07,-0.28 -0.22,-0.28 -0.14,0 -0.8,0.72 -0.82,0.75 -0.07,0.13 0.01,0.32 0.14,0.32z"/>
   <path class="fil0" d="M24.14 4.24c0,0.15 0.74,0.83 0.8,0.83 0.12,0 0.28,-0.03 0.28,-0.18 0,-0.19 -0.75,-0.89 -0.86,-0.89 -0.12,0 -0.22,0.11 -0.22,0.25z"/>
   <path class="fil0" d="M32.43 8.17l0.98 0c0.24,0 0.24,-0.43 0,-0.43l-0.92 0c-0.34,0 -0.26,0.43 -0.06,0.43z"/>
  </g>
  <g id="_1943010566304">
   <path class="fil0" d="M46.76 11.44c0,-0.11 0.09,-0.18 0.2,-0.18l2.14 0c0.27,0 0.27,0.36 0,0.36l-2.14 0c-0.11,0 -0.2,-0.08 -0.2,-0.18zm-0.98 -2.39c0,0.12 0.51,1.29 0.59,1.48 0.04,0.09 0.06,0.15 0.1,0.24 0.04,0.09 0.06,0.18 0.11,0.26 -0.22,0.15 -0.22,0.49 -0.11,0.68 0.07,0.12 0.11,0.04 0.12,0.23 0.01,0.3 -0.06,1.03 0.07,1.25 0.07,0.12 0.24,0.25 0.43,0.25l1.91 0c0.18,0 0.33,-0.12 0.41,-0.23 0.1,-0.15 0.09,-0.3 0.09,-0.55 0,-0.21 0,-0.43 -0,-0.64 -0,-0.19 -0.02,-0.14 0.07,-0.24 0.13,-0.14 0.11,-0.23 0.11,-0.39 0,-0.2 -0.16,-0.32 -0.16,-0.34 0,-0.12 0.78,-1.92 0.78,-1.96 0.02,-0.1 -0.29,-0.62 -0.35,-0.74 -0.42,-0.84 -0.91,-1.72 -1.33,-2.56 -0.06,-0.11 -0.34,-0.68 -0.39,-0.72l0 2.96c0.79,0.18 0.69,1.43 -0.16,1.42 -0.95,-0.02 -0.96,-1.24 -0.21,-1.42l0 -2.96c-0.09,0.07 -1.58,3.05 -1.82,3.45 -0.05,0.08 -0.25,0.44 -0.25,0.53z"/>
   <path class="fil0" d="M47.33 3.43l-3.48 0c0,-0.45 0.05,-0.36 -0.96,-0.36 -0.05,0 -0.14,0.08 -0.14,0.14l0 0.82c0,0.05 0.08,0.14 0.14,0.14l0.82 0c0.17,0 0.14,-0.27 0.14,-0.36l2.32 0c-0.06,0.06 -0.16,0.08 -0.26,0.13 -0.75,0.37 -1.48,1.03 -1.9,1.74 -0.11,0.18 -0.2,0.33 -0.28,0.54 -0.27,0.65 -0.2,0.5 -0.38,1.24 -0.5,0.04 -0.86,0.78 -0.39,1.24 0.49,0.47 1.26,0.12 1.26,-0.53 0,-0.32 -0.22,-0.6 -0.48,-0.66 0,-0.54 0.51,-1.61 0.89,-2.04 0.37,-0.42 0.56,-0.64 1.08,-0.97 0.41,-0.26 1.22,-0.61 1.67,-0.61 0.02,0.22 0.35,0.48 0.59,0.48l0.16 0c0.26,0 0.54,-0.26 0.59,-0.48 0.54,0 1.61,0.51 2.04,0.89 0.37,0.33 0.46,0.38 0.78,0.81 0.07,0.09 0.13,0.17 0.19,0.27 0.06,0.1 0.1,0.19 0.16,0.29 0.18,0.29 0.45,1.07 0.45,1.38 -0.25,0.06 -0.48,0.35 -0.48,0.68 0,0.62 0.8,0.98 1.26,0.51 0.34,-0.36 0.27,-0.91 -0.14,-1.15 -0.06,-0.04 -0.17,-0.08 -0.26,-0.09 -0.06,-0.69 -0.53,-1.7 -0.98,-2.25 -0.43,-0.53 -0.95,-0.97 -1.56,-1.28l-0.2 -0.09c-0.04,-0.02 -0.04,-0.02 -0.07,-0.05l2.32 0c0,0.45 -0.05,0.36 0.96,0.36 0.05,0 0.14,-0.08 0.14,-0.14l0 -0.82c0,-0.05 -0.08,-0.14 -0.14,-0.14l-0.82 0c-0.17,0 -0.14,0.27 -0.14,0.36l-3.44 0c-0.08,0 -0.08,-0.1 -0.12,-0.17 -0.04,-0.08 -0.09,-0.12 -0.14,-0.17 -0.44,-0.44 -1.15,-0.08 -1.19,0.35z"/>
   <path class="fil0" d="M47.67 8.67c0,0.55 0.73,0.55 0.73,0 0,-0.16 -0.16,-0.32 -0.41,-0.32 -0.14,0 -0.32,0.18 -0.32,0.32z"/>
   <path class="fil0" d="M52.25 8.16c0,0.55 0.73,0.55 0.73,0 0,-0.16 -0.16,-0.32 -0.41,-0.32 -0.14,0 -0.32,0.18 -0.32,0.32z"/>
   <path class="fil0" d="M43.05 8.16c0,0.55 0.73,0.55 0.73,0 0,-0.16 -0.16,-0.32 -0.41,-0.32 -0.14,0 -0.32,0.18 -0.32,0.32z"/>
   <path class="fil0" d="M47.64 3.53c0,0.55 0.73,0.55 0.73,0 0,-0.16 -0.16,-0.32 -0.41,-0.32 -0.14,0 -0.32,0.18 -0.32,0.32z"/>
  </g>
  <path class="fil1" d="M2.8 0l10.74 0c0.77,0 1.47,0.31 1.97,0.82 0.51,0.51 0.82,1.21 0.82,1.98l0 10.74c0,0.77 -0.31,1.47 -0.82,1.97 -0.51,0.51 -1.21,0.82 -1.98,0.82l-10.74 0c-0.77,0 -1.47,-0.31 -1.97,-0.82 -0.51,-0.51 -0.82,-1.21 -0.82,-1.98l0 -10.74c0,-0.77 0.31,-1.47 0.82,-1.97 0.51,-0.51 1.21,-0.82 1.98,-0.82zm10.74 0.7l-10.74 0c-0.58,0 -1.1,0.24 -1.48,0.62 -0.38,0.38 -0.62,0.91 -0.62,1.48l0 10.74c0,0.58 0.24,1.1 0.62,1.48 0.38,0.38 0.91,0.62 1.48,0.62l10.74 0c0.58,0 1.1,-0.24 1.48,-0.62 0.38,-0.38 0.62,-0.91 0.62,-1.48l0 -10.74c0,-0.58 -0.24,-1.1 -0.62,-1.48 -0.38,-0.38 -0.91,-0.62 -1.48,-0.62z"/>
  <path class="fil1" d="M22.73 0l10.74 0c0.77,0 1.47,0.31 1.97,0.82 0.51,0.51 0.82,1.21 0.82,1.98l0 10.74c0,0.77 -0.31,1.47 -0.82,1.97 -0.51,0.51 -1.21,0.82 -1.98,0.82l-10.74 0c-0.77,0 -1.47,-0.31 -1.97,-0.82 -0.51,-0.51 -0.82,-1.21 -0.82,-1.98l0 -10.74c0,-0.77 0.31,-1.47 0.82,-1.97 0.51,-0.51 1.21,-0.82 1.98,-0.82zm10.74 0.7l-10.74 0c-0.58,0 -1.1,0.24 -1.48,0.62 -0.38,0.38 -0.62,0.91 -0.62,1.48l0 10.74c0,0.58 0.24,1.1 0.62,1.48 0.38,0.38 0.91,0.62 1.48,0.62l10.74 0c0.58,0 1.1,-0.24 1.48,-0.62 0.38,-0.38 0.62,-0.91 0.62,-1.48l0 -10.74c0,-0.58 -0.24,-1.1 -0.62,-1.48 -0.38,-0.38 -0.91,-0.62 -1.48,-0.62z"/>
  <path class="fil1" d="M42.66 0l10.74 0c0.77,0 1.47,0.31 1.97,0.82 0.51,0.51 0.82,1.21 0.82,1.98l0 10.74c0,0.77 -0.31,1.47 -0.82,1.97 -0.51,0.51 -1.21,0.82 -1.98,0.82l-10.74 0c-0.77,0 -1.47,-0.31 -1.97,-0.82 -0.51,-0.51 -0.82,-1.21 -0.82,-1.98l0 -10.74c0,-0.77 0.31,-1.47 0.82,-1.97 0.51,-0.51 1.21,-0.82 1.98,-0.82zm10.74 0.7l-10.74 0c-0.58,0 -1.1,0.24 -1.48,0.62 -0.38,0.38 -0.62,0.91 -0.62,1.48l0 10.74c0,0.58 0.24,1.1 0.62,1.48 0.38,0.38 0.91,0.62 1.48,0.62l10.74 0c0.58,0 1.1,-0.24 1.48,-0.62 0.38,-0.38 0.62,-0.91 0.62,-1.48l0 -10.74c0,-0.58 -0.24,-1.1 -0.62,-1.48 -0.38,-0.38 -0.91,-0.62 -1.48,-0.62z"/>
  <path class="fil1" d="M62.6 0l10.74 0c0.77,0 1.47,0.31 1.97,0.82 0.51,0.51 0.82,1.21 0.82,1.98l0 10.74c0,0.77 -0.31,1.47 -0.82,1.97 -0.51,0.51 -1.21,0.82 -1.98,0.82l-10.74 0c-0.77,0 -1.47,-0.31 -1.97,-0.82 -0.51,-0.51 -0.82,-1.21 -0.82,-1.98l0 -10.74c0,-0.77 0.31,-1.47 0.82,-1.97 0.51,-0.51 1.21,-0.82 1.98,-0.82zm10.74 0.7l-10.74 0c-0.58,0 -1.1,0.24 -1.48,0.62 -0.38,0.38 -0.62,0.91 -0.62,1.48l0 10.74c0,0.58 0.24,1.1 0.62,1.48 0.38,0.38 0.91,0.62 1.48,0.62l10.74 0c0.58,0 1.1,-0.24 1.48,-0.62 0.38,-0.38 0.62,-0.91 0.62,-1.48l0 -10.74c0,-0.58 -0.24,-1.1 -0.62,-1.48 -0.38,-0.38 -0.91,-0.62 -1.48,-0.62z"/>
  <path class="fil0" d="M63.42 6.5c0,0.47 0.05,0.79 0.26,1.2 0.04,0.08 0.05,0.13 0.1,0.2 0.3,0.52 0.56,0.78 0.97,1.19 0.06,0.06 0.1,0.08 0.16,0.14l1.1 1.07c0.19,0.18 0.66,0.66 0.87,0.83 0.03,0.03 0.05,0.05 0.08,0.08 0.11,0.11 0.2,0.2 0.31,0.31l0.32 0.3c0.41,0.41 0.48,0.28 0.9,-0.14 0.06,-0.06 0.11,-0.09 0.17,-0.15 0.11,-0.11 0.2,-0.2 0.3,-0.3l0.54 -0.52c0.04,-0.03 0.05,-0.03 0.09,-0.07 0.11,-0.11 0.2,-0.2 0.31,-0.31 0.03,-0.03 0.04,-0.05 0.07,-0.07 0.21,-0.18 0.34,-0.34 0.48,-0.46l0.71 -0.67c0.6,-0.6 0.99,-1.02 1.26,-1.83 0.05,-0.16 0.08,-0.33 0.1,-0.51l0 -0.35c-0.03,-0.51 -0.21,-1.03 -0.5,-1.38 -0.3,-0.36 -0.71,-0.61 -1.25,-0.72 -1.14,-0.23 -1.76,0.17 -2.52,0.79 -0.1,0.08 -0.17,0.18 -0.27,0.23 -0.11,-0.06 -0.16,-0.14 -0.26,-0.22 -0.75,-0.59 -1.34,-1.03 -2.52,-0.8 -0.57,0.12 -1.19,0.47 -1.45,0.99l-0.16 0.34c-0.08,0.2 -0.15,0.57 -0.15,0.84z"/>
 </g>
</svg>
